<?xml version="1.0" standalone="no"?>
<!DOCTYPE svg PUBLIC "-//W3C//DTD SVG 20010904//EN"
 "http://www.w3.org/TR/2001/REC-SVG-20010904/DTD/svg10.dtd">
<svg version="1.0" xmlns="http://www.w3.org/2000/svg"
 width="722.000000pt" height="346.000000pt" viewBox="0 0 722.000000 346.000000"
 preserveAspectRatio="xMidYMid meet">

<g transform="translate(0.000000,346.000000) scale(0.100000,-0.100000)"
fill="#000000" stroke="none">
<path d="M3149 2863 c-18 -21 -19 -120 -4 -510 8 -215 15 -306 24 -317 11 -12
43 -16 165 -18 l151 -3 0 -152 c0 -89 -4 -156 -10 -162 -6 -6 -126 -11 -307
-13 l-296 -3 -6 115 c-12 223 -18 262 -37 281 -17 17 -40 18 -283 19 -148 0
-276 -4 -290 -10 l-26 -10 0 -304 c0 -271 2 -305 17 -317 13 -11 55 -13 195
-11 l178 3 0 -285 c0 -158 0 -289 0 -293 0 -5 -55 -9 -122 -11 l-121 -3 -29
35 c-16 20 -41 41 -55 48 -16 8 -31 28 -40 53 -7 22 -18 44 -24 50 -5 5 -63
12 -127 15 l-117 5 -3 33 c-3 26 0 32 16 32 23 0 32 8 26 24 -8 20 -108 13
-112 -8 -2 -11 3 -16 17 -16 17 0 21 -6 21 -34 l0 -33 -100 -7 c-55 -4 -104
-5 -110 -1 -6 4 -17 1 -25 -5 -12 -10 -15 -9 -15 8 0 27 -12 34 -65 34 -40 0
-44 2 -47 26 -2 16 -13 32 -30 42 -25 13 -31 13 -55 0 -61 -34 -48 -120 17
-120 26 0 30 -4 30 -26 0 -15 5 -44 12 -65 10 -34 14 -38 35 -33 13 4 44 -1
68 -10 35 -14 49 -15 65 -6 19 10 21 19 18 63 l-3 52 48 3 c28 2 47 -1 47 -7
0 -6 14 -11 31 -11 31 0 31 0 11 -17 -12 -10 -24 -30 -28 -45 l-6 -28 61 0
c48 0 65 4 81 20 11 11 16 20 10 20 -5 0 -7 7 -4 15 4 8 1 15 -5 15 -6 0 -11
5 -11 10 0 7 27 10 72 8 l72 -3 9 -34 c7 -29 5 -37 -20 -63 -25 -26 -28 -37
-28 -93 0 -61 2 -67 37 -102 32 -32 44 -37 95 -41 50 -3 63 0 96 22 l38 26
273 0 c207 0 276 3 290 13 16 12 17 26 6 212 -6 110 -15 259 -20 330 -6 72
-10 142 -10 158 l0 27 388 -2 387 -3 5 -255 c4 -222 7 -258 23 -281 25 -37 58
-49 139 -49 63 0 69 -2 63 -17 -17 -38 -15 -70 4 -107 l20 -39 -104 -185 c-58
-101 -105 -186 -105 -188 0 -2 6 -4 13 -4 6 0 58 82 114 183 75 135 107 183
122 185 21 3 21 0 21 -182 0 -117 4 -186 10 -186 6 0 10 68 10 185 0 247 1
247 152 0 62 -102 119 -185 126 -185 10 0 8 9 -6 33 -11 17 -63 103 -116 190
l-97 159 22 44 c17 37 19 49 10 76 -6 17 -11 33 -11 34 0 2 159 4 353 4 363 0
406 4 460 42 53 38 58 60 88 422 16 188 29 344 29 349 0 4 77 7 170 7 l171 0
32 -37 c49 -56 117 -83 209 -83 149 0 264 74 333 213 52 107 69 184 69 317 -1
132 -21 208 -79 297 -63 95 -133 132 -255 133 -94 0 -135 -11 -201 -56 l-52
-35 -382 2 c-278 1 -389 -2 -405 -11 -50 -27 -51 -43 -48 -578 3 -534 3 -533
-48 -552 -14 -6 -90 -10 -169 -10 l-144 0 -3 464 c-3 438 -4 465 -22 485 -17
18 -32 21 -140 23 l-121 3 1 25 c1 14 4 145 8 292 8 261 7 267 -13 287 -21 21
-29 21 -390 21 -331 0 -370 -2 -382 -17z m336 -463 l0 -165 -67 -3 -68 -3 0
171 0 171 68 -3 67 -3 0 -165z m2225 -254 c0 -2 -9 -6 -20 -9 -11 -3 -18 -1
-14 4 5 9 34 13 34 5z m47 -78 c-3 -8 -6 -5 -6 6 -1 11 2 17 5 13 3 -3 4 -12
1 -19z m-130 -40 c-3 -8 -6 -5 -6 6 -1 11 2 17 5 13 3 -3 4 -12 1 -19z m130
-10 c-3 -8 -6 -5 -6 6 -1 11 2 17 5 13 3 -3 4 -12 1 -19z m-3137 -238 l0 -100
-71 0 c-105 0 -109 4 -109 104 0 45 3 86 7 89 3 4 44 7 90 7 l83 0 0 -100z
m-993 -822 c-3 -8 -6 -5 -6 6 -1 11 2 17 5 13 3 -3 4 -12 1 -19z"/>
<path d="M1420 478 c0 -7 10 -33 22 -58 11 -25 20 -57 19 -72 -1 -19 4 -28 14
-28 8 0 15 4 15 10 0 6 9 6 26 0 14 -6 37 -10 51 -10 l25 0 -21 18 c-31 25
-41 71 -26 115 l13 37 -69 0 c-49 0 -69 -4 -69 -12z"/>
<path d="M1600 482 c0 -12 56 -98 69 -106 6 -4 11 -18 11 -31 0 -28 18 -43 26
-21 4 11 11 13 31 5 13 -5 36 -9 51 -9 l26 0 -28 29 c-16 17 -37 54 -47 83
l-18 53 -60 3 c-34 2 -61 -1 -61 -6z"/>
</g>
</svg>
